<svg xmlns="http://www.w3.org/2000/svg" xmlns:xlink="http://www.w3.org/1999/xlink" width="36" height="36" viewBox="0 0 36 36">
  <defs>
    <clipPath id="clip-logout">
      <rect width="36" height="36"/>
    </clipPath>
  </defs>
  <g id="logout" clip-path="url(#clip-logout)">
    <path id="logout-svgrepo-com" d="M85.186,104.673h2.452a.55.55,0,0,1,.429.2,11.274,11.274,0,0,0,.781.855,12.352,12.352,0,1,0,0-17.463c-.276.276-.534.562-.781.855a.555.555,0,0,1-.429.2H85.186a.278.278,0,0,1-.234-.429,15,15,0,1,1,0,16.207A.279.279,0,0,1,85.186,104.673Zm-3.1-7.894,4.95-3.907a.279.279,0,0,1,.453.22v2.651H98.442a.28.28,0,0,1,.279.279v1.953a.28.28,0,0,1-.279.279H87.488v2.651a.28.28,0,0,1-.453.22l-4.95-3.907a.279.279,0,0,1,0-.44Z" transform="translate(-78.978 -78.998)"/>
  </g>
</svg>
